<svg width="27" height="27" viewBox="0 0 27 27" fill="none" xmlns="http://www.w3.org/2000/svg">
<rect width="27" height="27" rx="6" fill="white"/>
<path d="M3.6 0C2.64522 0 1.72955 0.355579 1.05442 0.988515C0.379285 1.62145 0 2.47989 0 3.375V23.625C0 24.5201 0.379285 25.3785 1.05442 26.0115C1.72955 26.6444 2.64522 27 3.6 27H23.4C24.3548 27 25.2705 26.6444 25.9456 26.0115C26.6207 25.3785 27 24.5201 27 23.625V3.375C27 2.47989 26.6207 1.62145 25.9456 0.988515C25.2705 0.355579 24.3548 0 23.4 0L3.6 0ZM12.6 3.375H14.4C14.8774 3.375 15.3352 3.55279 15.6728 3.86926C16.0104 4.18572 16.2 4.61495 16.2 5.0625V10.125C16.2 10.5726 16.0104 11.0018 15.6728 11.3182C15.3352 11.6347 14.8774 11.8125 14.4 11.8125H12.6C12.1226 11.8125 11.6648 11.6347 11.3272 11.3182C10.9896 11.0018 10.8 10.5726 10.8 10.125V5.0625C10.8 4.61495 10.9896 4.18572 11.3272 3.86926C11.6648 3.55279 12.1226 3.375 12.6 3.375ZM3.6 5.0625C3.6 4.61495 3.78964 4.18572 4.12721 3.86926C4.46477 3.55279 4.92261 3.375 5.4 3.375H7.2C7.67739 3.375 8.13523 3.55279 8.47279 3.86926C8.81036 4.18572 9 4.61495 9 5.0625V16.875C9 17.3226 8.81036 17.7518 8.47279 18.0682C8.13523 18.3847 7.67739 18.5625 7.2 18.5625H5.4C4.92261 18.5625 4.46477 18.3847 4.12721 18.0682C3.78964 17.7518 3.6 17.3226 3.6 16.875V5.0625ZM19.8 3.375H21.6C22.0774 3.375 22.5352 3.55279 22.8728 3.86926C23.2104 4.18572 23.4 4.61495 23.4 5.0625V21.9375C23.4 22.3851 23.2104 22.8143 22.8728 23.1307C22.5352 23.4472 22.0774 23.625 21.6 23.625H19.8C19.3226 23.625 18.8648 23.4472 18.5272 23.1307C18.1896 22.8143 18 22.3851 18 21.9375V5.0625C18 4.61495 18.1896 4.18572 18.5272 3.86926C18.8648 3.55279 19.3226 3.375 19.8 3.375V3.375Z" fill="#4167DA"/>
</svg>
